<svg viewBox="0 0 200 120" role="img" aria-label="confetti illustration" xmlns="http://www.w3.org/2000/svg"><path d="M47.8 109.6 q4 -5 8 0 t8 0" fill="none" stroke="#F2442E" stroke-width="2.6" stroke-linecap="round" transform="rotate(220 47.8 109.6)"/><rect x="9.9" y="102.7" width="9" height="4" rx="1" fill="#49B2F5" transform="rotate(129 9.9 102.7)"/><circle cx="13.8" cy="118.1" r="3.2" fill="#FF8CC6"/><path d="M90.4 65.7 q4 -5 8 0 t8 0" fill="none" stroke="#FFCB0A" stroke-width="2.6" stroke-linecap="round" transform="rotate(217 90.4 65.7)"/><path d="M156.0 50.2 q4 -5 8 0 t8 0" fill="none" stroke="#33C584" stroke-width="2.6" stroke-linecap="round" transform="rotate(170 156.0 50.2)"/><circle cx="72.5" cy="57.8" r="3.2" fill="#F2442E"/><path d="M166.8 43.0 q4 -5 8 0 t8 0" fill="none" stroke="#49B2F5" stroke-width="2.6" stroke-linecap="round" transform="rotate(64 166.8 43.0)"/><rect x="24.4" y="54.6" width="9" height="4" rx="1" fill="#FF8CC6" transform="rotate(164 24.4 54.6)"/><rect x="22.8" y="74.6" width="9" height="4" rx="1" fill="#FFCB0A" transform="rotate(278 22.8 74.6)"/><circle cx="121.1" cy="111.2" r="3.2" fill="#33C584"/><circle cx="70.5" cy="37.5" r="3.2" fill="#F2442E"/><circle cx="62.0" cy="19.0" r="3.2" fill="#49B2F5"/><rect x="75.9" y="119.6" width="9" height="4" rx="1" fill="#FF8CC6" transform="rotate(174 75.9 119.6)"/><circle cx="50.7" cy="110.5" r="3.2" fill="#FFCB0A"/><rect x="35.0" y="52.1" width="9" height="4" rx="1" fill="#33C584" transform="rotate(64 35.0 52.1)"/><circle cx="138.3" cy="91.2" r="3.2" fill="#F2442E"/><rect x="148.4" y="105.9" width="9" height="4" rx="1" fill="#49B2F5" transform="rotate(133 148.4 105.9)"/><circle cx="127.7" cy="99.4" r="3.2" fill="#FF8CC6"/><path d="M157.1 114.9 q4 -5 8 0 t8 0" fill="none" stroke="#FFCB0A" stroke-width="2.6" stroke-linecap="round" transform="rotate(116 157.1 114.9)"/><circle cx="41.4" cy="33.3" r="3.2" fill="#33C584"/><path d="M41.8 6.3 q4 -5 8 0 t8 0" fill="none" stroke="#F2442E" stroke-width="2.6" stroke-linecap="round" transform="rotate(105 41.8 6.3)"/><path d="M152.0 25.3 q4 -5 8 0 t8 0" fill="none" stroke="#49B2F5" stroke-width="2.6" stroke-linecap="round" transform="rotate(183 152.0 25.3)"/><rect x="83.5" y="39.6" width="9" height="4" rx="1" fill="#FF8CC6" transform="rotate(126 83.5 39.6)"/><circle cx="174.2" cy="24.5" r="3.2" fill="#FFCB0A"/><rect x="88.1" y="32.2" width="9" height="4" rx="1" fill="#33C584" transform="rotate(188 88.1 32.2)"/><path d="M20.1 46.3 q4 -5 8 0 t8 0" fill="none" stroke="#F2442E" stroke-width="2.6" stroke-linecap="round" transform="rotate(167 20.1 46.3)"/></svg>